<svg height="512" viewBox="0 0 64 64" width="512" xmlns="http://www.w3.org/2000/svg"><g id="_28-Cash_register" data-name="28-Cash register"><path d="m29 34v3h-22v-3h3 16z" fill="#a8b7d4"/><path d="m7 31h3v3h-3z" fill="#5c6979"/><path d="m26 31h3v3h-3z" fill="#5c6979"/><g fill="#edf4fa"><path d="m40 42v4h-6l.33-4z"/><path d="m40 42h5v4h-5z"/><path d="m45 42h5v4h-5z"/><path d="m55.67 42 .33 4h-6v-4z"/><path d="m55.33 38 .34 4h-5.67v-4z"/><path d="m45 38h5v4h-5z"/><path d="m40 38h5v4h-5z"/><path d="m40 38v4h-5.67l.34-4z"/><path d="m40 34v4h-5.33l.33-4z"/><path d="m40 34h5v4h-5z"/><path d="m45 34h5v4h-5z"/><path d="m55 34 .33 4h-5.33v-4z"/></g><path d="m49 27v2h-8v-2-4h8z" fill="#bd6f08"/><path d="m34 20h22v-16h-22zm25-17v18a2.006 2.006 0 0 1 -2 2h-24a2.006 2.006 0 0 1 -2-2v-18a2.006 2.006 0 0 1 2-2h24a2.006 2.006 0 0 1 2 2z" fill="#ffad39"/><path d="m34 4h22v16h-22z" fill="#edf4fa"/><path d="m19 55h26v4h-26z" fill="#e03e3e"/><path d="m63 51.37v7.63a4 4 0 0 1 -4 4h-54a4 4 0 0 1 -4-4v-7.63c0-.13 0-.25.01-.37h61.98c.01.12.01.24.01.37zm-18 7.63v-4h-26v4z" fill="#fc9e20"/><path d="m55.67 42-.34-4-.33-4h-20l-.33 4-.34 4-.33 4h22zm7.28 8.63c.01.13.03.25.04.37h-61.98c.01-.12.03-.24.04-.37l2.73-21.88a2.007 2.007 0 0 1 1.99-1.75h4.23v4h-3v6h22v-6h-3v-4h15v2h8v-2h9.23a2.007 2.007 0 0 1 1.99 1.75z" fill="#febd55"/><path d="m45 17a8 8 0 0 1 -8-8v-5h-3v16h22v-3z" fill="#c1cfe8"/><path d="m45 25h4v-2h-8v6h2v-2a2 2 0 0 1 2-2z" fill="#9e5d07"/><path d="m61 59h-49a4 4 0 0 1 -4-4v-4h-6.99c-.01.12-.01.24-.01.37v7.63a4 4 0 0 0 4 4h54a4 4 0 0 0 4-4v-2a2 2 0 0 1 -2 2z" fill="#e68c15"/><path d="m8.694 42.668a4 4 0 0 1 3.987-3.668h14.319a1 1 0 0 0 1-1v-1h-21v-6h3v-4h-4.23a2.007 2.007 0 0 0 -1.99 1.75l-2.73 21.88c-.01.13-.03.25-.04.37h6.99z" fill="#fc9e20"/><path d="m41 27v2h8l-1.414 1.414a2 2 0 0 1 -1.414.586h-12.672a1.5 1.5 0 0 1 -1.5-1.5 1.5 1.5 0 0 1 1.5-1.5h4.5v-1z" fill="#fc9e20"/><path d="m19 55v4h3v-1a1 1 0 0 1 1-1h18a1 1 0 0 1 1 1v1h3v-4z" fill="#a81e29"/><path d="m10 31v3h-3v-1h1a1 1 0 0 0 1-1v-1z" fill="#393d48"/><path d="m26 31v3h3v-1h-1a1 1 0 0 1 -1-1v-1z" fill="#393d48"/><path d="m7 34v3h22v-3h-1a2 2 0 0 1 -2 2h-16a2 2 0 0 1 -2-2z" fill="#8394b2"/><path d="m26 27v4 3h-16v-3-4-13l2 2 2-2 2 2 2-2 2 2 2-2 2 2 2-2z" fill="#edf4fa"/><path d="m10 32h16v2h-16z" fill="#d6e0eb"/><path d="m33 24h7v5a1 1 0 0 0 1 1h8a1 1 0 0 0 1-1v-5h7a3 3 0 0 0 3-3v-18a3 3 0 0 0 -3-3h-24a3 3 0 0 0 -3 3v18a3 3 0 0 0 3 3zm15 4h-6v-4h6zm-16-25a1 1 0 0 1 1-1h24a1 1 0 0 1 1 1v18a1 1 0 0 1 -1 1h-24a1 1 0 0 1 -1-1z"/><path d="m63.946 50.505-2.735-21.877a3 3 0 0 0 -2.977-2.628h-7.234v2h7.234a1 1 0 0 1 .993.876l2.735 21.875a5.183 5.183 0 0 1 .038.623v7.626a3 3 0 0 1 -3 3h-54a3 3 0 0 1 -3-3v-7.626a5.125 5.125 0 0 1 .038-.621l2.735-21.877a1 1 0 0 1 .993-.876h2.234v-2h-2.234a3 3 0 0 0 -2.977 2.628l-2.735 21.879a7.182 7.182 0 0 0 -.054.867v7.626a5.006 5.006 0 0 0 5 5h54a5.006 5.006 0 0 0 5-5v-7.626a7.24 7.24 0 0 0 -.054-.869z"/><path d="m28 26h11v2h-11z"/><path d="m7 30a1 1 0 0 0 -1 1v6a1 1 0 0 0 1 1h22a1 1 0 0 0 1-1v-6a1 1 0 0 0 -1-1h-2v-16a1 1 0 0 0 -1.707-.707l-1.293 1.293-1.293-1.293a1 1 0 0 0 -1.414 0l-1.293 1.293-1.293-1.293a1 1 0 0 0 -1.414 0l-1.293 1.293-1.293-1.293a1 1 0 0 0 -1.414 0l-1.293 1.293-1.293-1.293a1 1 0 0 0 -1.707.707v16zm1 2h1v1h-1zm0 4v-1h20v1zm20-4v1h-1v-1zm-17-15.586.293.293a1 1 0 0 0 1.414 0l1.293-1.293 1.293 1.293a1 1 0 0 0 1.414 0l1.293-1.293 1.293 1.293a1 1 0 0 0 1.414 0l1.293-1.293 1.293 1.293a1 1 0 0 0 1.414 0l.293-.293v16.586h-14z"/><path d="m55 33h-20a1 1 0 0 0 -1 .917l-1 12a1 1 0 0 0 1 1.083h22a1 1 0 0 0 1-1.083l-1-12a1 1 0 0 0 -1-.917zm-.753 4h-3.247v-2h3.08zm-13.247 2h3v2h-3zm-2 2h-3.58l.167-2h3.413zm5-4h-3v-2h3zm2-2h3v2h-3zm-2 8v2h-3v-2zm2 0h3v2h-3zm0-2v-2h3v2zm5-2h3.413l.167 2h-3.58zm-12-4v2h-3.247l.167-2zm-3.746 8h3.746v2h-3.913zm15.746 2v-2h3.746l.167 2z"/><path d="m7 50h54v2h-54z"/><path d="m3 50h2v2h-2z"/><path d="m34 21h22a1 1 0 0 0 1-1v-11h-2v10h-20v-14h20v2h2v-3a1 1 0 0 0 -1-1h-22a1 1 0 0 0 -1 1v16a1 1 0 0 0 1 1z"/><path d="m19 54a1 1 0 0 0 -1 1v4a1 1 0 0 0 1 1h26a1 1 0 0 0 1-1v-4a1 1 0 0 0 -1-1zm25 4h-24v-2h24z"/><path d="m13 18h2v2h-2z"/><path d="m17 18h2v2h-2z"/><path d="m13 21h2v2h-2z"/><path d="m17 21h2v2h-2z"/><path d="m13 25h10v2h-10z"/><path d="m13 29h10v2h-10z"/><path d="m37 7h2v2h-2z"/><path d="m41 7h2v2h-2z"/><path d="m37 10h2v2h-2z"/><path d="m41 10h2v2h-2z"/></g></svg>