<svg id="Capa_1" enable-background="new 0 0 512 512" height="512" viewBox="0 0 512 512" width="512" xmlns="http://www.w3.org/2000/svg"><g><path d="m91.935 473.436h279.56v31.062h-279.56z" fill="#9697b6"/><path d="m91.935 473.436h50v31.062h-50z" fill="#7c7c98"/><path d="m317.137 473.436h-170.843v-12.534c0-10.233 8.295-18.528 18.528-18.528h133.787c10.233 0 18.528 8.295 18.528 18.528z" fill="#f2f3ed"/><path d="m214.822 442.374h-50c-10.233 0-18.528 8.295-18.528 18.528v12.534h50v-12.534c0-10.233 8.296-18.528 18.528-18.528z" fill="#ddd"/><path d="m216.328 394.313-12.954 48.061h56.683l-12.954-48.061-15.387-17.563z" fill="#cc7b44"/><path d="m66.901 297.291c6.412-6.412 16.907-5.968 22.8.923 34.293 40.103 85.236 65.563 142.014 65.563 51.509 0 98.216-20.953 132.045-54.783s54.783-80.537 54.783-132.045c0-49.904-19.434-96.82-54.721-132.107-3.468-3.468-7.049-6.781-10.734-9.938-6.904-5.913-7.386-16.414-.959-22.841 5.723-5.723 14.901-6.116 21.05-.855 4.33 3.705 8.537 7.594 12.61 11.667 41.155 41.155 63.82 95.873 63.82 154.075 0 58.12-22.689 112.815-63.885 154.012s-95.892 63.885-154.011 63.885c-66.224 0-125.641-29.697-165.637-76.473-5.27-6.164-4.909-15.349.825-21.083z" fill="#e5925a"/><circle cx="231.716" cy="176.948" fill="#64b9fc" r="154.945"/><g fill="#68ca44"><path d="m144.594 231c22.22-2 24.78-37.125 26.548-52.656 1.767-15.531-11.016-32.344-24.847-44.468-13.831-12.123 7.08-33.188 7.08-48.719s-19.78-28.125-19.78-28.125h-.008c-34.683 28.415-56.815 71.58-56.815 119.915 0 31.125 9.178 60.106 24.974 84.386.028-.039 20.644-28.334 42.848-30.333z"/><path d="m247.122 22.761c-.03.127-13.564 57.523-.141 73.553 5.302 6.331 13.944 12.781 14.693 21.857.767 9.299-9.486 14.471-13.441 21.777-7.16 13.226-2.216 29.701 7.336 40.4 7.482 8.38 20.1 11.464 22.218 23.775 1.831 10.643-2.575 27.127 5.557 35.991 13.715 14.949 30.874-13.345 32.693-24.866 1.863-11.8 1.338-24.51 4.474-36.043 3.392-12.475 16.001-16.718 27.747-15.965 12.651.811 26.34 13.564 38.391 15.106h.005c.004-.465.007-.93.007-1.396-.001-80.376-61.198-146.456-139.539-154.189z"/><path d="m282.507 289.754c-7.215 1.498-14.286 6.039-21.538 1.869-7.139-4.105-10.729-11.783-14.364-18.797-3.817-7.363-10.43-19.772-20.699-15.659-10.437 4.18-13.931 18.064-25.917 19.653-8.983 1.191-20.034-.888-25.982 7.522-7.594 10.738-4.82 26.549 1.626 37.089 17.391 6.755 36.304 10.462 56.083 10.462 28.643 0 55.47-7.772 78.488-21.322v-.002c-3.721-11.686-14.482-23.558-27.697-20.815z"/></g><path d="m133.594 57.033s19.78 12.593 19.78 28.125c0 2.043-.362 4.182-.959 6.384 23.363-35.299 60.794-60.473 104.301-67.531-8.138-1.32-16.489-2.007-25-2.007-37.239 0-71.409 13.137-98.13 35.03h.008z" fill="#36a5f5"/><path d="m172.476 286.831c-15.329-15.239-27.486-33.664-35.397-54.199-19.128 6.46-35.308 28.666-35.334 28.702 17.595 27.045 43.403 48.256 73.888 60.097-5.964-9.752-8.785-24.017-3.157-34.6z" fill="#36a5f5"/><path d="m137.078 232.632c-6.658-17.281-10.307-36.056-10.307-55.684 0-31.563 9.437-60.921 25.644-85.407.597-2.202.959-4.341.959-6.384 0-15.531-19.78-28.125-19.78-28.125h-.008c-34.683 28.415-56.815 71.58-56.815 119.915 0 31.125 9.178 60.106 24.974 84.386.026-.035 16.205-22.241 35.333-28.701z" fill="#4fc123"/><path d="m256.716 329.886c-32.618-5.291-61.82-20.766-84.24-43.055-5.627 10.584-2.807 24.849 3.157 34.601 17.391 6.755 36.304 10.462 56.083 10.462 8.511-.001 16.861-.688 25-2.008z" fill="#4fc123"/><path d="m391.024 336.263c42.617-42.617 66.086-99.195 66.086-159.313 0-65.4-29.353-128.962-79.056-171.44-10.569-7.741-20.979-7.325-31.228 1.247-9.41 11.664-8.951 22.941 1.377 33.833 1.659 1.424 3.293 2.884 4.9 4.364l-12.001 12.001c-28.886-26.358-67.289-42.455-109.382-42.455-88.401 0-162.45 74.028-162.45 162.45 0 40.029 15.473 79.812 42.455 109.382l-11.933 11.933c-9.487-10.313-25.384-19.092-38.195-6.278-8.449 8.449-8.983 22.18-1.217 31.257 17.929 20.968 39.238 38.292 63.337 51.494 3.634 1.992 8.191.658 10.181-2.974 1.99-3.633.658-8.191-2.975-10.181-22.5-12.326-42.398-28.504-59.144-48.088-2.709-3.167-2.522-7.955.424-10.901 4.068-3.279 8-3.116 11.796.49 36.497 42.693 91.49 68.196 147.71 68.196 51.825 0 100.605-20.238 137.353-56.986 36.742-36.742 56.977-85.518 56.977-137.343 0-56.384-25.361-111.07-68.075-147.75-3.64-3.808-3.817-7.753-.532-11.837 3.569-2.993 7.193-3.143 10.875-.452 46.415 39.67 73.802 98.986 73.802 160.039 0 56.111-21.91 108.923-61.693 148.707-39.774 39.783-92.585 61.693-148.707 61.693-24.697 0-48.883-4.261-71.886-12.665-3.89-1.42-8.197.58-9.618 4.471s.58 8.197 4.471 9.618c16.85 6.156 34.29 10.235 52.088 12.203l-9.135 33.893h-32.809c-16.742 0-26.835 15.741-26.03 31.07h-46.85c-4.142 0-7.5 3.358-7.5 7.5v31.06c0 4.142 3.358 7.5 7.5 7.5h279.56c4.142 0 7.5-3.358 7.5-7.5v-31.06c0-4.142-3.358-7.5-7.5-7.5h-46.86c.21-15.232-8.614-31.07-26.03-31.07h-32.808l-9.137-33.899c50.702-5.568 97.703-28.045 134.359-64.709zm-122.088-154.591c-13.326-11.223-23.145-29.378-9.391-43.873 16.719-17.618 5.76-31.286-6.813-46.302-6.885-8.222-4.227-38.252.26-60.458 68.325 9.917 121.614 66.861 125.882 136.841-9.506-5.265-19.226-10.341-30.136-12.128-17.481-2.863-31.606 7.299-35.464 21.482-1.928 13.179-3.727 26.376-5.399 39.59-3.503 22.187-23.557 31.016-22.894 2.174.666-28.998-6.189-29.024-16.045-37.326zm-134.975-115.003c12.711 10.7 13.461 19.238 6.678 34.475-5.102 11.458-12.09 27.151.712 38.372 11.667 10.227 23.854 24.038 22.035 40.724-1.485 13.616-4.575 41.95-19.464 43.29-17.006 1.531-32.505 15.491-41.134 24.881-11.789-21.181-18.518-45.548-18.518-71.461 0-43.831 19.231-83.249 49.691-110.281zm224.496 237.018c-33.915 33.915-78.928 52.593-126.747 52.593-45.205 0-88.358-17.067-121.313-47.406l11.935-11.935c29.803 27.19 69.038 42.452 109.389 42.452 50.581 0 97.387-22.946 128.416-62.954 2.539-3.273 1.943-7.984-1.33-10.523s-7.984-1.943-10.522 1.33c-9.947 12.825-21.687 23.708-34.725 32.435-6.659-11.629-18.56-20.18-32.576-17.268-14.81 3.071-17.643 6.538-26.978-11.599-7.834-23.037-28.918-27.678-44.942-9.142-4.089 6.074-9.451 8.787-16.087 8.138-7.782.337-18.44.798-25.092 10.204-5.691 8.048-6.905 17.823-5.406 27.075-20.486-10.943-38.1-26.577-51.398-45.464 7.186-8.482 21.176-21.983 34.187-23.154 27.125-2.441 31.114-39.023 33.031-56.603 2.358-21.589-11.691-40.159-27.06-53.63-3.812-3.341-2.5-8.404 3.104-20.991 8.744-19.636 7.698-35.486-8.446-50.123 26.377-18.946 59.669-28.851 92.125-27.479-4.535 23.629-11.164 56.697 7.72 76.405 10.277 7.054 11.252 14.196 2.923 21.426-19.928 20.999-9.817 51.354 11.635 66.462 8.9 5.198 12.38 12.544 10.438 22.039-.173 9.385-.389 21.065 7.081 29.208 5.859 6.021 12.32 7.982 19.384 5.885 14.32-4.318 24.697-24.854 26.244-34.65 1.05-11.794 2.484-23.543 4.303-35.246 2.909-10.699 16.073-10.776 20.03-10.449 11.11.919 21.869 11.277 31.201 13.44 0 0-5.728 38.771-14.297 56.586-1.795 3.732-.225 8.214 3.508 10.01 3.732 1.796 8.214.226 10.01-3.508 28.364-58.964 17.619-131.341-26.49-179.689l11.997-11.997c30.575 33.183 47.335 75.993 47.335 121.385-.004 47.819-18.678 92.828-52.587 126.737zm-157.482-19.431c9.397 1.754 14.998-7.644 19.435-12.775 9.273-10.725 15.718-7.761 20.258 6.195 10.787 20.963 20.051 26.658 43.364 19.422 6.827-2.119 13.072 4.151 16.602 10.308-20.893 11.05-44.414 16.985-68.912 16.985-17.881 0-50.9-9.058-50.9-9.058-11.393-25.333 4.491-34 20.153-31.077zm108.665 181.684h-36.58c-4.142 0-7.5 3.358-7.5 7.5s3.358 7.5 7.5 7.5h90.94v16.06h-264.56v-16.06h140.93c4.142 0 7.5-3.358 7.5-7.5s-3.358-7.5-7.5-7.5h-86.58c-.31-9.607 1.023-16.07 11.03-16.07h133.79c8.703-.001 11.703 4.797 11.03 16.07zm-59.373-31.07h-37.103l8.822-32.728c6.486.281 12.971.278 19.456-.011z"/></g></svg>