<svg height="512" viewBox="0 0 64 64" width="512" xmlns="http://www.w3.org/2000/svg"><g id="Layer_31" data-name="Layer 31"><path d="m32 11a2 2 0 0 1 2 2v2a0 0 0 0 1 0 0h-4a0 0 0 0 1 0 0v-2a2 2 0 0 1 2-2z" fill="#e6e6e6"/><path d="m30 30h4v19h-4z" fill="#e6e6e6"/><path d="m30 30v10a2.978 2.978 0 0 0 2-.779 2.978 2.978 0 0 0 2 .779v-10z" fill="#cecece"/><path d="m6.692 33-1.408-18.307a4 4 0 0 0 -3.984-3.693h-.3l2 26h16v-4z" fill="#ff938d"/><path d="m9 34h-2.148a2 2 0 0 1 -1.994-1.847l-1.586-20.617a3.968 3.968 0 0 0 -1.972-.536h-.3l2 26h16v-3z" fill="#f27875"/><path d="m19 31v2h-12.31l-.31-4h10.62a2 2 0 0 1 2 2z" fill="#e6e6e6"/><path d="m4 53h-3l2-16h4z" fill="#ff938d"/><path d="m18 53h3l-2-16h-4z" fill="#ff938d"/><path d="m57.308 33 1.408-18.307a4 4 0 0 1 3.984-3.693h.3l-2 26h-16v-4z" fill="#ff938d"/><path d="m45 31v2h12.31l.31-4h-10.62a2 2 0 0 0 -2 2z" fill="#e6e6e6"/><path d="m60 53h3l-2-16h-4z" fill="#ff938d"/><path d="m46 53h-3l2-16h4z" fill="#ff938d"/><path d="m17 29h-8v4h10v-2a2 2 0 0 0 -2-2z" fill="#cecece"/><path d="m55 29h-8a2 2 0 0 0 -2 2v2h10z" fill="#cecece"/><path d="m45 33v4h9.142a3.291 3.291 0 0 0 .858-2.19v-1.81z" fill="#f27875"/><path d="m11 23v11.81a3.139 3.139 0 0 0 3.14 3.19 2.983 2.983 0 0 0 1.86-.779 2.957 2.957 0 0 0 4 0 2.957 2.957 0 0 0 4 0 2.957 2.957 0 0 0 4 0 2.957 2.957 0 0 0 4 0 2.957 2.957 0 0 0 4 0 2.957 2.957 0 0 0 4 0 2.957 2.957 0 0 0 4 0 2.957 2.957 0 0 0 4 0 2.983 2.983 0 0 0 1.86.779 3.139 3.139 0 0 0 3.14-3.19v-11.81a2 2 0 0 0 -2-2h-38a2 2 0 0 0 -2 2z" fill="#ffd3b6"/><path d="m52.86 35a2.983 2.983 0 0 1 -1.86-.779 2.957 2.957 0 0 1 -4 0 2.957 2.957 0 0 1 -4 0 2.957 2.957 0 0 1 -4 0 2.957 2.957 0 0 1 -4 0 2.957 2.957 0 0 1 -4 0 2.957 2.957 0 0 1 -4 0 2.957 2.957 0 0 1 -4 0 2.957 2.957 0 0 1 -4 0 2.983 2.983 0 0 1 -1.86.779 3.139 3.139 0 0 1 -3.14-3.19v-10.81h-1a2 2 0 0 0 -2 2v11.81a3.139 3.139 0 0 0 3.14 3.19 2.983 2.983 0 0 0 1.86-.779 2.957 2.957 0 0 0 4 0 2.957 2.957 0 0 0 4 0 2.957 2.957 0 0 0 4 0 2.957 2.957 0 0 0 4 0 2.957 2.957 0 0 0 4 0 2.957 2.957 0 0 0 4 0 2.957 2.957 0 0 0 4 0 2.957 2.957 0 0 0 4 0 2.983 2.983 0 0 0 1.86.779 3.12 3.12 0 0 0 3.122-3.009c-.041-.003-.082.009-.122.009z" fill="#f9b995"/><path d="m30 49h4a4 4 0 0 1 4 4 0 0 0 0 1 0 0h-12a0 0 0 0 1 0 0 4 4 0 0 1 4-4z" fill="#e6e6e6"/><path d="m33 49h-3a4 4 0 0 0 -4 4h3a4 4 0 0 1 4-4z" fill="#cecece"/><path d="m30 14h4a6 6 0 0 1 6 6v1a0 0 0 0 1 0 0h-16a0 0 0 0 1 0 0v-1a6 6 0 0 1 6-6z" fill="#e6e6e6"/><path d="m36.642 18a1 1 0 0 1 -.66-.249 3 3 0 0 0 -1.232-.651 1 1 0 0 1 .5-1.938 5.034 5.034 0 0 1 2.053 1.09 1 1 0 0 1 -.661 1.748z" fill="#fff"/><path d="m33 14h-3a6 6 0 0 0 -6 6v1h3v-1a6 6 0 0 1 6-6z" fill="#cecece"/><g fill="#f27875"><path d="m6.625 39 .375-2h-4l-.25 2z"/><path d="m15.464 39-.375-2h4l.25 2z"/><path d="m48.625 39 .375-2h-4l-.25 2z"/><path d="m57.464 39-.375-2h4l.25 2z"/></g><path d="m63.074 23.077a1 1 0 1 0 -1.994-.154l-1.006 13.077h-6.268a4.2 4.2 0 0 0 .194-1.189v-.811h3.308a1 1 0 0 0 1-.923l1.405-18.307a3.02 3.02 0 0 1 2.2-2.663l-.524 6.816a1 1 0 0 0 .919 1.077 1.012 1.012 0 0 0 1.074-.92l.615-8a1 1 0 0 0 -.997-1.08h-.3a5.022 5.022 0 0 0 -4.985 4.616l-1.026 13.384h-2.689v-5a3 3 0 0 0 -3-3h-10a7 7 0 0 0 -6-6.92v-.08a3 3 0 0 0 -6 0v.08a7 7 0 0 0 -6 6.92h-10a3 3 0 0 0 -3 3v5h-2.689l-1.03-13.383a5.022 5.022 0 0 0 -4.981-4.617h-.3a1 1 0 0 0 -1 1.077l2 25.9-1.992 15.899a1 1 0 0 0 .992 1.124h3a1 1 0 0 0 .983-.815l2.847-15.185h3.626a3.838 3.838 0 0 0 2.732 1c.055 0 .11-.013.165-.018l2.664 14.207a1 1 0 0 0 .983.811h3a1 1 0 0 0 .992-1.124l-1.792-14.322a4.014 4.014 0 0 0 3.8-.1 4.017 4.017 0 0 0 4 0 3.845 3.845 0 0 0 1 .407v9.239a5.009 5.009 0 0 0 -4 4.9 1 1 0 0 0 1 1h12a1 1 0 0 0 1-1 5.009 5.009 0 0 0 -4-4.9v-9.24a3.845 3.845 0 0 0 1-.407 4.017 4.017 0 0 0 4 0 4.014 4.014 0 0 0 3.8.1l-1.79 14.322a1 1 0 0 0 .99 1.125h3a1 1 0 0 0 .983-.815l2.664-14.207c.055 0 .11.015.166.018s.119 0 .178 0a3.848 3.848 0 0 0 2.555-1h3.624l2.847 15.185a1 1 0 0 0 .983.819h3a1 1 0 0 0 .992-1.124l-1.987-15.9zm-6.539 6.923-.154 2h-2.381v-2zm-24.535-18a1 1 0 0 1 1 1h-2a1 1 0 0 1 1-1zm-2 3h4a5.006 5.006 0 0 1 5 5h-14a5.006 5.006 0 0 1 5-5zm-20 15v2h-2.381l-.154-2zm-5.713-15.229 1.406 18.306a1 1 0 0 0 1 .923h3.307v.811a4.2 4.2 0 0 0 .194 1.189h-6.268l-1.838-23.893a3.02 3.02 0 0 1 2.199 2.664zm-1.117 37.229h-1.037l1.75-14h1.917zm15.66 0-2.51-13.387a4.015 4.015 0 0 0 1.919.359l1.628 13.028zm13.17-13.546a3.845 3.845 0 0 0 1 .407v9.139h-2v-9.139a3.845 3.845 0 0 0 1-.407zm4.829 13.546h-9.658a3.006 3.006 0 0 1 2.829-2h4a3.006 3.006 0 0 1 2.829 2zm8.341 0h-1.037l1.628-13.028a3.991 3.991 0 0 0 1.919-.359zm4.738-15a1.911 1.911 0 0 1 -.908-.284v-4.716a1 1 0 0 0 -2 0v4.716a1.9 1.9 0 0 1 -1 .284 1.974 1.974 0 0 1 -1.331-.521 1 1 0 0 0 -1.338 0 1.974 1.974 0 0 1 -1.331.521 1.9 1.9 0 0 1 -1-.284v-2.716a1 1 0 0 0 -2 0v2.716a1.9 1.9 0 0 1 -1 .284 1.974 1.974 0 0 1 -1.331-.521 1 1 0 0 0 -1.338 0 1.974 1.974 0 0 1 -1.331.521 1.9 1.9 0 0 1 -1-.284v-4.716a1 1 0 0 0 -2 0v4.716a1.9 1.9 0 0 1 -1 .284 1.974 1.974 0 0 1 -1.331-.521 1 1 0 0 0 -1.338 0 1.974 1.974 0 0 1 -1.331.521 1.9 1.9 0 0 1 -1-.284v-2.716a1 1 0 0 0 -2 0v2.716a1.9 1.9 0 0 1 -1 .284 1.974 1.974 0 0 1 -1.331-.521 1 1 0 0 0 -1.338 0 1.974 1.974 0 0 1 -1.331.521 1.9 1.9 0 0 1 -1-.284v-4.716a1 1 0 0 0 -2 0v4.716a1.843 1.843 0 0 1 -2.291-.262 2.289 2.289 0 0 1 -.709-1.643v-11.811a1 1 0 0 1 1-1h38a1 1 0 0 1 1 1v11.811a2.289 2.289 0 0 1 -.709 1.643 1.87 1.87 0 0 1 -1.383.546zm10.922 15-2.625-14h1.912l1.75 14z"/></g></svg>