<svg id="Layer_1" enable-background="new 0 0 511.991 511.991" height="512" viewBox="0 0 511.991 511.991" width="512" xmlns="http://www.w3.org/2000/svg"><path d="m51.971 379.89-44.481 124.622 124.63-44.477 25.937-25.937-80.133-80.133z" fill="#fee8b8"/><path d="m132.164 459.977c.032 0 0-39.13 0-39.13h-40.749s-.235-40.981 0-40.746l-.235-.235c.235.235-39.132-.025-39.132 0l-.001-.025 285.549-285.533 80.149 80.144-285.549 285.533z" fill="#fed682"/><path d="m356.668 114.378-265.488 265.488.235.235c-.235-.235 0 40.746 0 40.746h40.749l266.851-264.125z" fill="#fec040"/><path d="m492.717 99.499-15.546 15.545-80.162-80.157 15.55-15.549c15.696-15.695 41.144-15.695 56.84 0l23.319 23.317c15.697 15.697 15.697 41.148-.001 56.844z" fill="#fe79a9"/><path d="m492.717 42.655-23.319-23.317c-13.124-13.123-33.062-15.265-48.42-6.443 3.01 1.729 5.848 3.871 8.42 6.443l23.319 23.317c12.186 12.185 14.903 30.244 8.169 45.059-.743 1.636-3.622 4.885-4.929 6.118l21.214 21.212 15.546-15.546c15.698-15.696 15.698-41.146 0-56.843z" fill="#f4549b"/><path d="m480.142 110.842-78.932-78.927c-5.16-5.16-13.526-5.16-18.687 0l-14.754 14.753c-5.161 5.16-5.161 13.527 0 18.688l-.001-.001c-5.16-5.16-13.526-5.16-18.686 0l-14.755 14.754c-5.161 5.16-5.161 13.527 0 18.688l78.933 78.928c5.16 5.16 13.526 5.16 18.686 0l14.754-14.755c5.161-5.16 5.161-13.527 0-18.688l.001.001c5.16 5.16 13.526 5.16 18.687 0l14.755-14.753c5.16-5.16 5.16-13.527-.001-18.688z" fill="#dadae3"/><path d="m446.7 162.97-14.754 14.754c-5.16 5.16-13.526 5.16-18.686 0l-78.933-78.928c-5.161-5.16-5.161-13.527 0-18.688l14.754-14.754c5.16-5.16 13.526-5.16 18.686 0l78.933 78.928c5.161 5.161 5.161 13.528 0 18.688z" fill="#d0d0d9"/><path d="m446.7 144.283-21.238-21.236c5.147 5.161 5.144 13.518-.012 18.674l-14.755 14.754c-5.16 5.16-13.526 5.16-18.686 0l21.25 21.25c5.16 5.16 13.526 5.16 18.686 0l14.755-14.755c5.161-5.16 5.161-13.527 0-18.687z" fill="#bfbfc7"/><path d="m480.142 110.842-21.098-21.097c5.161 5.16 4.98 14.151-.18 19.312l-14.755 14.754c-4.217 4.217-10.574 4.983-15.574 2.307l18.167 18.165c5.16 5.16 13.526 5.16 18.687 0l14.755-14.753c5.159-5.16 5.159-13.527-.002-18.688z" fill="#d0d0d9"/><path d="m7.49 504.512 46.563-16.617-29.944-29.943z" fill="#797a84"/><path d="m511.991 71.077c0-12.74-4.962-24.717-13.971-33.725l-23.319-23.317c-18.593-18.594-48.851-18.593-67.445 0l-7.92 7.919c-7.413-2.855-16.146-1.312-22.115 4.657l-14.756 14.754c-3.548 3.549-5.535 8.076-5.965 12.721-4.646.43-9.173 2.416-12.722 5.965l-14.754 14.753c-3.913 3.913-6.068 9.115-6.068 14.647 0 2.604.494 5.127 1.407 7.484l-277.331 277.314c-.933.815-1.679 1.87-2.125 3.121l-44.481 124.621c-2.093 5.382 3.907 11.382 9.584 9.584l66.743-23.819c9.242-3.298 3.798-17.282-5.041-14.127l-15.712 5.607-23.234-23.233 24.492-68.62c8.852.041 17.703.086 26.555.08-.024 11.142.038 22.284.102 33.426.023 4.125 3.375 7.457 7.5 7.457h33.254c.006 9.6.011 20.25.007 26.381l-18.12 6.467c-8.879 3.168-4.072 17.38 5.041 14.127l23.042-8.223c1.046-.373 2.074-1.025 2.858-1.81l277.624-277.607c2.402.927 4.938 1.403 7.479 1.403 5.305 0 10.608-2.019 14.646-6.057l14.754-14.753c3.456-3.455 5.534-7.917 5.975-12.723 4.642-.431 9.167-2.417 12.715-5.964l14.753-14.753c3.913-3.912 6.068-9.114 6.068-14.647 0-2.6-.493-5.12-1.403-7.474l7.91-7.909c9.011-9.009 13.973-20.986 13.973-33.727zm-471.623 413.739-20.495 7.314 7.315-20.494zm58.466-101.997 123.906-123.906c6.637-6.637-3.668-17.544-10.607-10.606l-124.144 124.143c-3.844.027-11.157.012-17.933-.012l263.661-263.645 8.964 8.964-103.605 103.605c-6.63 6.63 3.764 17.447 10.607 10.606l103.606-103.605 31.739 31.737-253.246 253.247h-32.905c-.054-11.553-.093-25.237-.043-30.528zm40.842 59.08c0-.496 0-.993-.001-1.49l-.008-13.733 255.968-255.968 7.625 7.624zm301.721-284.232-14.754 14.753c-2.228 2.228-5.852 2.228-8.081 0l-78.932-78.928c-2.232-2.694-2.232-5.388.001-8.081l14.753-14.753c1.989-1.989 6.044-2.037 8.082.001l78.932 78.926c2.231 2.695 2.231 5.388-.001 8.082zm46.018-63.472-9.484 9.483c-1.131.348-2.197.966-3.092 1.861-2.929 2.929-2.929 7.678.001 10.607 2.232 2.694 2.232 5.387-.001 8.081l-14.753 14.753c-2.228 2.228-5.852 2.229-8.081 0l-78.924-78.918-.009-.009c-2.229-2.228-2.229-5.854-.001-8.081l14.755-14.753c2.228-2.228 5.852-2.228 8.081 0l56.188 56.185c6.634 6.639 17.546-3.669 10.605-10.606l-51.497-51.498 6.658-6.658c12.748-12.746 33.486-12.746 46.234 0l23.319 23.317c12.561 12.561 12.564 33.673.001 46.236z"/></svg>