<svg id="Layer_1" enable-background="new 0 0 66 66" height="512" viewBox="0 0 66 66" width="512" xmlns="http://www.w3.org/2000/svg"><g><g><g><path d="m48.6134 17.5593 7.3706-7.3706c-6.818-3.9472-19.5608 2.5753-16.141 15.1396.1288.4731-.0017.9813-.365 1.3105l-26.95 24.4132c-2.9117 2.6368-3.0241 7.1737-.2464 9.9514 2.7826 2.7826 7.3292 2.6642 9.9632-.2594l24.333-27.0085c.3275-.3635.8349-.4949 1.3073-.3676 11.9362 3.214 18.5822-7.864 15.2524-16.0256l-7.3706 7.3706c-.5023.5023-1.3168.5023-1.8191 0l-5.3345-5.3345c-.5023-.5024-.5023-1.3168.0001-1.8191z" fill="#dae1e7"/></g></g><g><g><path d="m19.9696 57.2213c-1.0976 1.0976-2.8866 1.1085-3.9841.0109-1.1086-1.1086-1.0976-2.8975-.0001-3.9951s2.8756-1.0976 3.9842.011c1.0976 1.0976 1.0976 2.8756 0 3.9732z" fill="#fff"/></g></g><g><g><path d="m15.278 57.9391c-1.4909-1.4909-1.4909-3.9174.0007-5.409 1.4853-1.4853 3.907-1.4805 5.3979.0104 1.4853 1.4853 1.4853 3.9022 0 5.3875-1.4916 1.4916-3.9133 1.4964-5.3986.0111zm3.9844-3.9844c-.7113-.7113-1.8641-.7157-2.5695-.0104-.7116.7116-.7119 1.8693-.0007 2.5805.7057.7057 1.8586.7005 2.5702-.011.7053-.7054.7057-1.8534 0-2.5591z" fill="#484c55"/></g></g><g><path d="m23.0274 18.1687 35.5911 33.5512c2.3436 2.2093 2.3983 5.9182.1209 8.1957-2.2774 2.2774-5.9864 2.2227-8.1957-.1209l-33.5512-35.5911z" fill="#ffdb6d"/></g><g><path d="m2.394 26.9218 8.2044 8.2044c.5331.5331 1.3974.5331 1.9304 0l3.6196-3.6196-1.8701-1.8701c-.8329-.8329-.8329-2.1834 0-3.0163.8329-.8329 2.1834-.8329 3.0163 0l1.8701 1.8701 8.8094-8.8094c.8986-.8986.8986-2.3555 0-3.2541l-2.4722-2.4722c-.9011-.9011-.9044-2.3648-.0033-3.2658 2.6156-2.6151 5.8378-4.8952 9.5474-6.9062.3843-.2083.245-.7758-.1919-.7891-3.8337-.1168-7.3517.8331-10.6292 2.5955-1.7661.9496-3.3816 2.1585-4.8752 3.4964l-10.0785 9.0288 1.7294 1.7294c.844.844.844 2.2125 0 3.0565-.844.844-2.2125.844-3.0565 0l-1.7294-1.7294-3.8207 3.8206c-.5331.5331-.5331 1.3974 0 1.9305z" fill="#fff"/></g><g><path d="m2.394 26.9218 8.2044 8.2044c.5331.5331 1.3974.5331 1.9304 0l3.6196-3.6196-1.8701-1.8701c-.8329-.8329-.8329-2.1834 0-3.0163.8329-.8329 2.1834-.8329 3.0163 0l1.8701 1.8701 8.8094-8.8094c.8986-.8986.8986-2.3555 0-3.2541l-2.4722-2.4722c-.9011-.9011-.9044-2.3648-.0033-3.2658 2.6156-2.6151 5.8378-4.8952 9.5474-6.9062.3843-.2083.245-.7758-.1919-.7891-3.8337-.1168-7.3517.8331-10.6292 2.5955-1.7661.9496-3.3816 2.1585-4.8752 3.4964l-10.0785 9.0288 1.7294 1.7294c.844.844.844 2.2125 0 3.0565-.844.844-2.2125.844-3.0565 0l-1.7294-1.7294-3.8207 3.8206c-.5331.5331-.5331 1.3974 0 1.9305z" fill="#fff"/></g><g><path d="m2.394 26.9218 8.2044 8.2044c.5331.5331 1.3974.5331 1.9304 0l3.6196-3.6196-1.8701-1.8701c-.8329-.8329-.8329-2.1834 0-3.0163.8329-.8329 2.1834-.8329 3.0163 0l1.8701 1.8701 8.8094-8.8094c.8986-.8986.8986-2.3555 0-3.2541l-2.4722-2.4722c-.9011-.9011-.9044-2.3648-.0033-3.2658 2.6156-2.6151 5.8378-4.8952 9.5474-6.9062.3843-.2083.245-.7758-.1919-.7891-3.8337-.1168-7.3517.8331-10.6292 2.5955-1.7661.9496-3.3816 2.1585-4.8752 3.4964l-10.0785 9.0288 1.7294 1.7294c.844.844.844 2.2125 0 3.0565-.844.844-2.2125.844-3.0565 0l-1.7294-1.7294-3.8207 3.8206c-.5331.5331-.5331 1.3974 0 1.9305z" fill="#a5b1c1"/></g><g><path d="m61.4143 55.7857c-.0256-1.8306-.7755-3.5376-2.1061-4.7923l-3.5849-3.3729c-.4019-.3784-1.0355-.3594-1.4139.0425-.3715.395-.3598 1.0116.0207 1.3921.0076.0076.0152.0152.0224.0218l3.5835 3.3715c.9274.8832 1.4605 2.0792 1.4788 3.366.0176 1.282-.472 2.4883-1.379 3.3954-1.8365 1.8365-4.8213 1.8396-6.6336.028l-29.8819-31.689 4.8549-4.8549 23.6843 22.3301c.4015.3788 1.0348.3601 1.4139-.0411.3791-.4026.3287-1.051-.0418-1.4139l-6.6869-6.3047 2.5758-2.859c.0684-.0766.1854-.1039.3049-.0715 5.545 1.4929 10.657.1609 14.0247-3.6543 3.3273-3.7693 4.2744-9.1523 2.4134-13.7147-.1281-.3111-.4005-.5359-.7285-.6028-.328-.0656-.6677.0366-.9046.2735l-7.3704 7.3704c-.1115.1115-.2928.1119-.4047 0l-5.3351-5.3351c-.1119-.1119-.1115-.2931 0-.4047l7.3704-7.3704c.2196-.2196.3246-.5289.2845-.8369-.0411-.3083-.2224-.5787-.4906-.7358-3.7417-2.1666-9.1465-1.5306-13.1436 1.5454-4.4505 3.4244-6.0777 8.7902-4.4629 14.7229.0325.1195.0059.2372-.0711.3059l-1.2685 1.1484c-.4095.3708-.4409 1.003-.0701 1.4125.3857.4333 1.0033.4412 1.4125.0708l1.2685-1.1484c.6384-.5776.8904-1.465.6588-2.3147-1.3914-5.1106-.0235-9.7075 3.752-12.6129 2.9469-2.2674 6.7489-2.9924 9.7023-1.9573l-6.3564 6.3564c-.8915.8915-.8915 2.3416 0 3.2331l5.3351 5.3351c.8915.8915 2.3416.8915 3.2331 0l6.2141-6.2141c.8342 3.4817-.1063 7.3956-2.5377 10.1502-2.8457 3.2241-7.222 4.3341-12.0042 3.0466-.8504-.2296-1.736.0249-2.3123.6633l-2.5456 2.8255-15.4984-14.6127.8911-.8911c1.2868-1.2868 1.2872-3.3809 0-4.668l-2.4721-2.4721c-.5117-.5117-.5127-1.3421-.0031-1.8517 2.4403-2.4403 5.575-4.7063 9.315-6.7337.5745-.3107.8604-.9433.7109-1.5741-.1492-.6353-.6898-1.0738-1.3472-1.0945-3.8211-.1164-7.5669.7969-11.1335 2.7145-1.7073.9188-3.366 2.1065-5.0685 3.6322-.4122.3681-.4468 1.0006-.078 1.4121.367.4009 1.0002.4457 1.4115.0773 1.5844-1.4187 3.1157-2.5177 4.6829-3.3598 2.5788-1.3869 5.1652-2.1848 7.8503-2.4158-3.0342 1.8189-5.6372 3.8073-7.7575 5.9275-1.2896 1.2896-1.2882 3.3888.0031 4.6801l2.4721 2.4721c.5069.5069.5072 1.3324 0 1.8396l-8.1024 8.1024-1.1629-1.1629c-1.2216-1.2216-3.2089-1.2216-4.4305 0s-1.2216 3.2089 0 4.4305l1.1629 1.1629-2.9127 2.9127c-.1423.1423-.3739.1419-.5162-.0003l-8.2042-8.2042c-.1422-.1423-.1426-.3739-.0003-.5162l3.1136-3.1136 1.0227 1.0227c1.2326 1.2326 3.2383 1.2323 4.4709-.0003s1.2326-3.2379 0-4.4705l-.9826-.9826 5.1559-4.6186c.4122-.3681.4468-1.0006.078-1.4121-.3598-.4053-.9999-.4461-1.4115-.0773l-5.9434 5.3233c-.2051.183-.3252.4426-.3332.7171-.0069.2748.0987.5407.2928.7347l1.7298 1.7298c.453.453.4526 1.1894 0 1.6421-.453.453-1.1894.4533-1.6424.0003l-1.7298-1.7298c-.3908-.3908-1.0237-.3905-1.4142 0l-3.8207 3.8207c-.9219.9219-.9215 2.4227.0003 3.3446l8.2042 8.2042c.9219.9219 2.4227.9222 3.3446.0003l3.6198-3.6198c.3905-.3905.3908-1.0234 0-1.4142l-1.87-1.87c-.4419-.4419-.4416-1.1604 0-1.602s1.1601-.4419 1.602 0l1.87 1.87c.3908.3908 1.0237.3905 1.4142 0l.2338-.2338 7.0561 7.4827-15.3053 13.8644c-1.6127 1.4608-2.5312 3.4634-2.5847 5.6396-.0542 2.1755.7641 4.2216 2.3026 5.7601 1.542 1.542 3.5915 2.3596 5.7708 2.3029 2.1797-.057 4.1833-.9806 5.6427-2.6002l13.5428-15.0317 13.4371 14.2493c2.6123 2.6123 6.8663 2.6092 9.4824-.0069 1.2923-1.2924 1.9901-3.0107 1.9642-4.8382zm-39.9132 4.2885c-1.0883 1.2084-2.5826 1.8976-4.2085 1.9394-1.6255.0428-3.1544-.5676-4.3041-1.7174-1.1477-1.1477-1.7581-2.6737-1.7177-4.2968.0401-1.6228.7254-3.116 1.9287-4.206l15.3349-13.8914 6.6189 7.019z" fill="#484c55"/></g><g><path d="m32.2363 34.4121c-.2559 0-.5117-.0977-.707-.293l-4.8262-4.8257c-.3906-.3906-.3906-1.0234 0-1.4141s1.0234-.3906 1.4141 0l4.8262 4.8257c.3906.3906.3906 1.0234 0 1.4141-.1954.1953-.4512.293-.7071.293z" fill="#484c55"/></g><g><path d="m41.9258 44.1015c-.2559 0-.5117-.0977-.707-.293l-.165-.165c-.3906-.3906-.3906-1.0234 0-1.4141s1.0234-.3906 1.4141 0l.165.165c.1953.1953.293.4512.293.707s-.0977.5117-.293.707-.4513.2931-.7071.2931z" fill="#484c55"/></g><g><path d="m38.3213 40.4975c-.2559 0-.5127-.0977-.708-.2935l-1.3584-1.3594c-.3906-.3906-.3906-1.0234 0-1.4141s1.0234-.3906 1.4141 0l1.3604 1.3604c.3896.3906.3896 1.0239-.001 1.4141-.1954.1948-.4513.2925-.7071.2925z" fill="#484c55"/></g><g><path d="m51.3389 53.5156c-.2559 0-.5117-.0977-.707-.293l-4.8252-4.8262c-.3906-.3906-.3906-1.0239 0-1.4141.3906-.3906 1.0234-.3906 1.4141 0l4.8252 4.8262c.3906.3906.3906 1.0239 0 1.4141-.1954.1953-.4513.293-.7071.293z" fill="#484c55"/></g></g></svg>