<?xml version="1.0" encoding="UTF-8"?>
<svg xmlns="http://www.w3.org/2000/svg" xmlns:xlink="http://www.w3.org/1999/xlink" version="1.1" id="Capa_1" x="0px" y="0px" viewBox="0 0 511 511" style="enable-background:new 0 0 511 511;" xml:space="preserve" width="512" height="512">
<g>
	<g>
		<path style="fill:#FFFFFF;" d="M456,501H55c-24.853,0-45-20.147-45-45V55c0-24.853,20.147-45,45-45h401c24.853,0,45,20.147,45,45&#10;&#9;&#9;&#9;v401C501,480.853,480.853,501,456,501z"/>
		<path style="fill:#80B6FF;" d="M441,50H70c-11.046,0-20,8.954-20,20v371c0,11.046,8.954,20,20,20h194.488h89.668H441&#10;&#9;&#9;&#9;c11.046,0,20-8.954,20-20V70C461,58.954,452.046,50,441,50z"/>
		<path style="fill:#FFFFFF;" d="M341.07,126.465c-17.837-17.838-42.475-28.874-69.701-28.874h-94.206&#10;&#9;&#9;&#9;c-19.942,0-36.108,16.166-36.108,36.108v258.606c0,11.656,9.449,21.105,21.105,21.105h37.865c11.656,0,21.105-9.449,21.105-21.105&#10;&#9;&#9;&#9;v-97.551h48.98c54.213,0,99.225-43.245,99.827-97.455C370.246,169.629,359.152,144.547,341.07,126.465z M296.064,193.569&#10;&#9;&#9;&#9;c0,19.325-15.666,34.992-34.992,34.992H220.86v-69.984h40.212C280.397,158.577,296.064,174.243,296.064,193.569L296.064,193.569z"/>
	</g>
	<g>
		<path style="fill:none;stroke:#000000;stroke-width:20;stroke-linecap:round;stroke-linejoin:round;stroke-miterlimit:10;" d="&#10;&#9;&#9;&#9;M341.07,126.465c-17.837-17.838-42.475-28.874-69.701-28.874h-94.206c-19.942,0-36.108,16.166-36.108,36.108v258.606&#10;&#9;&#9;&#9;c0,11.656,9.449,21.105,21.105,21.105h37.865c11.656,0,21.105-9.449,21.105-21.105v-97.551h48.98&#10;&#9;&#9;&#9;c54.213,0,99.225-43.245,99.827-97.455C370.246,169.629,359.152,144.547,341.07,126.465z M296.064,193.569&#10;&#9;&#9;&#9;c0,19.325-15.666,34.992-34.992,34.992H220.86v-69.984h40.212C280.397,158.577,296.064,174.243,296.064,193.569L296.064,193.569z"/>
		<path style="fill:none;stroke:#000000;stroke-width:20;stroke-linecap:round;stroke-linejoin:round;stroke-miterlimit:10;" d="&#10;&#9;&#9;&#9;M456,501H55c-24.853,0-45-20.147-45-45V55c0-24.853,20.147-45,45-45h401c24.853,0,45,20.147,45,45v401&#10;&#9;&#9;&#9;C501,480.853,480.853,501,456,501z"/>
		<path style="fill:none;stroke:#000000;stroke-width:20;stroke-linecap:round;stroke-linejoin:round;stroke-miterlimit:10;" d="&#10;&#9;&#9;&#9;M264.488,461H70c-11.046,0-20-8.954-20-20V70c0-11.046,8.954-20,20-20h371c11.046,0,20,8.954,20,20v371c0,11.046-8.954,20-20,20&#10;&#9;&#9;&#9;h-86.843"/>
		
			<line style="fill:none;stroke:#000000;stroke-width:20;stroke-linecap:round;stroke-linejoin:round;stroke-miterlimit:10;" x1="309.325" y1="461" x2="309.325" y2="461"/>
	</g>
</g>















</svg>
