<svg id="Layer_1" enable-background="new 0 0 512 512" height="512" viewBox="0 0 512 512" width="512" xmlns="http://www.w3.org/2000/svg"><g clip-rule="evenodd" fill-rule="evenodd"><ellipse cx="148" cy="148" fill="#76e2f8" rx="140" ry="140" transform="matrix(.707 -.707 .707 .707 -61.303 148)"/><path d="m148 8c77.32 0 140 62.68 140 140s-62.68 140-140 140z" fill="#3aaaff"/><ellipse cx="148" cy="148" fill="#fff" rx="110.077" ry="110.077" transform="matrix(.707 -.707 .707 .707 -61.303 148)"/><ellipse cx="148" cy="148" fill="#697c86" rx="14.996" ry="14.996" transform="matrix(.987 -.16 .16 .987 -21.796 25.618)"/><path d="m148 133.004c8.282 0 14.996 6.714 14.996 14.996s-6.714 14.996-14.996 14.996z" fill="#3b4a51"/><path d="m302.115 255.703v-28.136c0-14.452-11.823-26.275-26.275-26.275-14.453 0-26.275 11.823-26.275 26.275v28.136c8.59-1.227 17.361-1.861 26.275-1.861s17.685.634 26.275 1.861z" fill="#c4cccf"/><path d="m302.115 255.703v-28.136c0-14.452-11.823-26.275-26.275-26.275v52.55c8.914 0 17.685.634 26.275 1.861z" fill="#90a4ae"/><path d="m468.477 453.44c0 4.386-.15 8.772-.422 13.149l-.058.938h-384.314l-.058-.938c-.271-4.378-.422-8.763-.422-13.149 0-33.469 7.91-66.374 23.466-96.029 14.783-28.181 36.088-52.64 62.22-70.838 31.527-21.955 68.507-33.731 106.951-33.731s75.424 11.776 106.952 33.731c26.132 18.198 47.437 42.657 62.22 70.838 15.556 29.655 23.465 62.56 23.465 96.029z" fill="#eceff1"/><path d="m468.477 453.44c0 4.386-.15 8.772-.422 13.149l-.058.938h-192.157v-214.685c38.444 0 75.424 11.776 106.952 33.731 26.132 18.198 47.437 42.657 62.22 70.838 15.556 29.655 23.465 62.56 23.465 96.029z" fill="#c4cccf"/><path d="m504 466.528c0 20.639-18.613 37.472-41.432 37.472h-373.457c-22.82 0-41.432-16.833-41.432-37.472z" fill="#c4cccf"/><path d="m504 466.528c0 20.639-18.613 37.472-41.432 37.472h-186.728v-37.472z" fill="#90a4ae"/><path d="m283.841 304.11c0 4.411-3.581 7.997-8 7.997-44.15 0-75.83 23.155-94.632 42.583-23.618 24.4-34.243 50.688-34.243 61.572 0 4.416-3.581 7.997-8 7.997-4.418 0-8-3.581-8-7.997 0-19.234 15.933-49.131 38.746-72.701 29.619-30.6 67.308-47.451 106.128-47.451 4.421-.002 8.001 3.579 8.001 8zm178.727 191.891h-373.457c-15.29 0-28.215-9.101-32.179-21.476h437.818c-3.963 12.376-16.89 21.476-32.182 21.476zm-370.365-42.564c0 1.68.029 3.383.074 5.091h367.127c.046-1.727.075-3.43.075-5.091 0-105.65-82.38-191.599-183.638-191.599-101.259 0-183.638 85.949-183.638 191.599zm113.244-221.939-2.495-4.317c-2.212-3.836-7.104-5.143-10.93-2.934-3.826 2.212-5.136 7.1-2.929 10.931l2.512 4.35c-10.936 5.232-22.946 8.554-35.605 9.549v-5.038c0-4.411-3.581-8.001-8-8.001-4.417 0-8 3.59-8 8.001v5.038c-12.657-.995-24.669-4.317-35.605-9.549l2.512-4.35c2.21-3.831.898-8.719-2.929-10.931-3.826-2.208-8.718-.901-10.928 2.934l-2.495 4.317c-10.186-7.029-19.026-15.871-26.053-26.052l4.323-2.496c3.826-2.213 5.136-7.101 2.926-10.931-2.21-3.821-7.101-5.133-10.928-2.93l-4.347 2.51c-5.232-10.931-8.561-22.943-9.552-35.601h5.033c4.417 0 8-3.581 8-8.001 0-4.421-3.583-8.001-8-8.001h-5.033c.991-12.658 4.32-24.669 9.552-35.596l4.347 2.51c1.26.717 2.635 1.071 3.993 1.071 2.764 0 5.453-1.444 6.935-4.005 2.209-3.826.899-8.718-2.926-10.926l-4.323-2.501c7.028-10.181 15.868-19.022 26.053-26.051l2.495 4.322c1.482 2.571 4.17 4.01 6.937 4.01 1.356 0 2.733-.349 3.991-1.08 3.826-2.213 5.138-7.1 2.929-10.931l-2.512-4.35c10.936-5.227 22.948-8.548 35.605-9.549v5.039c0 4.421 3.583 8.001 8 8.001 4.419 0 8-3.581 8-8.001v-5.039c12.659 1 24.669 4.322 35.605 9.549l-2.512 4.35c-2.208 3.831-.898 8.718 2.929 10.931 1.261.731 2.636 1.08 3.993 1.08 2.765 0 5.453-1.439 6.937-4.01l2.495-4.322c10.184 7.03 19.026 15.871 26.053 26.052l-4.323 2.501c-3.826 2.208-5.136 7.1-2.926 10.926 1.48 2.562 4.169 4.005 6.935 4.005 1.358 0 2.733-.354 3.992-1.071l4.35-2.51c5.23 10.926 8.56 22.938 9.552 35.596h-5.033c-4.419 0-8 3.581-8 8.001 0 4.421 3.581 8.001 8 8.001h5.033c-.991 12.658-4.321 24.669-9.552 35.601l-4.35-2.51c-3.826-2.213-8.718-.892-10.926 2.93-2.209 3.831-.899 8.718 2.926 10.931l4.323 2.496c-7.028 10.181-15.87 19.022-26.054 26.051zm-57.447 48.499c-72.785 0-131.998-59.208-131.998-131.999s59.213-131.999 131.998-131.999 132.001 59.208 132.001 131.999c0 15.691-2.718 30.982-8.07 45.522-8.019.92-15.204 4.609-20.57 10.087 8.947-16.56 14.032-35.497 14.032-55.609-.001-64.728-52.661-117.388-117.393-117.388-64.729 0-117.39 52.66-117.39 117.388 0 64.733 52.661 117.388 117.39 117.388 39.337 0 74.213-19.447 95.526-49.225-1.264 3.567-1.961 7.407-1.961 11.408v21.339c-26.442 4.784-51.118 14.979-72.919 29.472-6.826 1.07-13.761 1.617-20.646 1.617zm146.115-52.429c0-10.077-8.197-18.281-18.274-18.281s-18.276 8.204-18.276 18.281v19.15c6.021-.571 12.115-.878 18.276-.878s12.253.307 18.274.878zm209.886 230.96h-28.595c.043-1.717.071-3.421.071-5.091 0-102.319-71.556-187.579-165.362-204.53v-21.339c0-14.559-9.122-27.009-21.947-31.982 5.193-15.267 7.832-31.236 7.832-47.588.001-81.608-66.393-147.997-148-147.997s-147.998 66.389-147.998 147.997c0 80.901 65.253 146.841 145.892 147.969-42.637 38.115-69.691 94.564-69.691 157.47 0 1.661.028 3.373.072 5.091h-28.594c-4.419 0-8 3.581-8 8.001 0 25.07 22.173 45.47 49.43 45.47h373.457c27.256 0 49.43-20.4 49.43-45.47 0-4.421-3.581-8.001-7.997-8.001zm-356.001-303.42c3.922 0 7.11-3.189 7.11-7.11 0-3.92-3.188-7.11-7.11-7.11-3.92 0-7.11 3.189-7.11 7.11.001 3.921 3.19 7.11 7.11 7.11zm49.22 12.073-26.447-15.271c.217-1.269.337-2.581.337-3.911 0-9.931-6.297-18.418-15.109-21.678v-47.891c0-4.421-3.581-8.001-8-8.001-4.417 0-8 3.581-8 8.001v47.89c-8.811 3.26-15.109 11.747-15.109 21.678 0 12.743 10.368 23.113 23.109 23.113 5.61 0 10.759-2.01 14.767-5.35l26.453 15.276c1.261.722 2.635 1.071 3.993 1.071 2.764 0 5.453-1.439 6.935-4.001 2.207-3.826.897-8.718-2.929-10.926z"/></g></svg>