<svg height="511pt" viewBox="-55 0 511 511.99946" width="511pt" xmlns="http://www.w3.org/2000/svg"><path d="m178.175781 430.800781h138.433594c17.53125 0 31.742187-14.210937 31.742187-31.738281v-359.898438c0-17.53125-14.214843-31.742187-31.742187-31.742187h-308.605469zm0 0" fill="#494a59"/><path d="m178.175781 430.800781h30.007813v-308.207031c0-22.226562-12.007813-42.847656-31.335938-53.824219l-108.0625-61.347656h-60.78125zm0 0" fill="#3f404d"/><path d="m50.625 40.574219h264.574219v357.074219h-264.574219zm0 0" fill="#ecebed"/><path d="m50.625 397.648438h157.558594v-275.054688c0-22.226562-12.007813-42.851562-31.335938-53.824219l-49.664062-28.195312h-76.558594zm0 0" fill="#dfdfe0"/><path d="m162.035156 94.867188-154.03125-87.445313v423.378906l122.546875 69.574219c21.253907 12.066406 47.625-3.285156 47.625-27.726562v-350.054688c0-11.472656-6.164062-22.0625-16.140625-27.726562zm0 0" fill="#64c6fb"/><path d="m144.601562 279.386719c0 12.917969-10.472656 23.386719-23.386718 23.386719-12.917969 0-23.390625-10.46875-23.390625-23.386719 0-12.914063 10.472656-23.386719 23.390625-23.386719 12.914062 0 23.386718 10.472656 23.386718 23.386719zm0 0" fill="#ecebed"/><path d="m378.828125 205.21875h-96.109375v-16.445312c0-8.027344-9.449219-12.320313-15.492188-7.035157l-60.605468 52.984375c-4.257813 3.722656-4.257813 10.347656 0 14.070313l60.605468 52.984375c6.039063 5.28125 15.492188.992187 15.492188-7.035156v-16.445313h96.109375c8.234375 0 14.910156-6.675781 14.910156-14.910156v-43.257813c0-8.234375-6.675781-14.910156-14.910156-14.910156zm0 0" fill="#fc595a"/><path d="m152.101562 279.46875c0-17.03125-13.855468-30.890625-30.886718-30.890625-17.035156 0-30.890625 13.859375-30.890625 30.890625s13.855469 30.890625 30.890625 30.890625c17.03125 0 30.886718-13.859375 30.886718-30.890625zm-46.773437 0c0-8.757812 7.125-15.886719 15.886719-15.886719 8.757812 0 15.882812 7.128907 15.882812 15.886719s-7.125 15.882812-15.882812 15.882812c-8.761719 0-15.886719-7.125-15.886719-15.882812zm0 0"/><path d="m239.160156 15.003906c4.144532 0 7.503906-3.359375 7.503906-7.5 0-4.144531-3.359374-7.503906-7.503906-7.503906 0 0-231.03125 0-231.175781 0-3.859375.0390625-7.484375 3.597656-7.484375 7.503906v423.378906c0 2.699219 1.449219 5.191407 3.796875 6.523438l37.097656 21.0625c3.601563 2.046875 8.183594.78125 10.226563-2.820312 2.046875-3.601563.785156-8.183594-2.820313-10.226563l-33.296875-18.90625v-406.128906s142.8125 81.078125 142.824219 81.085937c7.523437 4.269532 12.34375 12.558594 12.34375 21.203125v350.054688c0 18.367187-20.421875 30.28125-36.417969 21.199219l-55.441406-31.472657c-3.601562-2.046875-8.183594-.785156-10.230469 2.816407-2.042969 3.605468-.78125 8.183593 2.820313 10.230468 0 0 55.40625 31.453125 55.445312 31.476563 25.859375 14.679687 58.832032-4.683594 58.832032-34.25v-34.347657h130.929687c21.636719 0 39.242187-17.601562 39.242187-39.242187v-113.261719h22.976563c12.359375 0 22.414063-10.050781 22.414063-22.410156v-43.257812c0-12.359376-10.054688-22.414063-22.414063-22.414063h-22.976563v-158.554687c0-21.636719-17.605468-39.242188-39.242187-39.242188h-47.441406c-4.140625 0-7.5 3.359375-7.5 7.503906 0 4.140625 3.359375 7.5 7.5 7.5h47.441406c13.363281 0 24.238281 10.875 24.238281 24.238282v158.554687h-18.148437v-157.140625c0-4.144531-3.359375-7.503906-7.5-7.503906h-246.820313l-31.964844-18.148438zm101.6875 384.136719c0 13.367187-10.875 24.242187-24.238281 24.242187h-130.929687v-18.148437h129.519531c4.140625 0 7.5-3.359375 7.5-7.503906v-111.851563h18.148437zm37.980469-186.339844c4.085937 0 7.410156 3.324219 7.410156 7.410157v43.257812c0 4.082031-3.324219 7.40625-7.410156 7.40625h-96.109375c-4.144531 0-7.503906 3.359375-7.503906 7.503906v16.453125c-.054688 1.519531-1.871094 2.414063-3.050782 1.378907l-60.605468-52.988282c-.816406-.710937-.8125-2.0625 0-2.769531 0 0 60.582031-52.96875 60.605468-52.988281.613282-.535156 1.402344-.582032 2.109376-.210938.601562.316406.9375.925782.941406 1.597656v16.449219c0 4.140625 3.359375 7.5 7.503906 7.5zm-71.132813-164.644531v149.640625h-17.472656s0-8.933594 0-8.945313c0-14.085937-17.308594-21.972656-27.933594-12.683593 0 0-60.589843 52.976562-60.605468 52.988281-7.550782 6.601562-7.542969 18.769531 0 25.363281 0 0 60.605468 52.984375 60.652344 53.027344 10.660156 9.320313 27.886718 1.339844 27.886718-12.722656v-8.945313h17.472656v104.347656h-122.015624s0-267.546874 0-267.550781c0-13.789062-7.761719-27.335937-19.941407-34.253906l-70.929687-40.265625zm0 0"/></svg>